<svg id="eqjJMEctx501" xmlns="http://www.w3.org/2000/svg" xmlns:xlink="http://www.w3.org/1999/xlink" viewBox="0 0 1024 1024" shape-rendering="geometricPrecision" text-rendering="geometricPrecision" style="background-color:#001732"><defs><linearGradient id="eqjJMEctx503-fill" x1="0.281962" y1="-9.160115" x2="0.281962" y2="2.105097" spreadMethod="pad" gradientUnits="objectBoundingBox" gradientTransform="translate(0 0)"><stop id="eqjJMEctx503-fill-0" offset="0%" stop-color="#20c2de"/><stop id="eqjJMEctx503-fill-1" offset="100%" stop-color="#0b5383"/></linearGradient><linearGradient id="eqjJMEctx504-fill" x1="-0.369988" y1="-1.567683" x2="-0.338016" y2="1.425006" spreadMethod="pad" gradientUnits="objectBoundingBox" gradientTransform="translate(0 0)"><stop id="eqjJMEctx504-fill-0" offset="0%" stop-color="#074168"/><stop id="eqjJMEctx504-fill-1" offset="100%" stop-color="#022645"/></linearGradient><linearGradient id="eqjJMEctx505-fill" x1="0.281962" y1="-9.160115" x2="0.281962" y2="2.105097" spreadMethod="pad" gradientUnits="objectBoundingBox" gradientTransform="translate(0 0)"><stop id="eqjJMEctx505-fill-0" offset="0%" stop-color="#20c2de"/><stop id="eqjJMEctx505-fill-1" offset="100%" stop-color="#0b5383"/></linearGradient><linearGradient id="eqjJMEctx506-fill" x1="-0.369988" y1="-1.567683" x2="-0.338016" y2="1.425006" spreadMethod="pad" gradientUnits="objectBoundingBox" gradientTransform="translate(0 0)"><stop id="eqjJMEctx506-fill-0" offset="0%" stop-color="#074168"/><stop id="eqjJMEctx506-fill-1" offset="100%" stop-color="#022645"/></linearGradient><linearGradient id="eqjJMEctx507-fill" x1="-0.013023" y1="-1.563173" x2="1.018094" y2="1" spreadMethod="pad" gradientUnits="objectBoundingBox" gradientTransform="translate(0 0)"><stop id="eqjJMEctx507-fill-0" offset="0%" stop-color="#8defe0"/><stop id="eqjJMEctx507-fill-1" offset="100%" stop-color="#27aeec"/></linearGradient><linearGradient id="eqjJMEctx509-fill" x1="-0.369988" y1="-1.567683" x2="-0.338016" y2="1.425006" spreadMethod="pad" gradientUnits="objectBoundingBox" gradientTransform="translate(0 0)"><stop id="eqjJMEctx509-fill-0" offset="0%" stop-color="#074168"/><stop id="eqjJMEctx509-fill-1" offset="100%" stop-color="#022645"/></linearGradient><linearGradient id="eqjJMEctx5010-fill" x1="0.281962" y1="-9.160115" x2="0.281962" y2="2.105097" spreadMethod="pad" gradientUnits="objectBoundingBox" gradientTransform="translate(0 0)"><stop id="eqjJMEctx5010-fill-0" offset="0%" stop-color="#20c2de"/><stop id="eqjJMEctx5010-fill-1" offset="100%" stop-color="#0b5383"/></linearGradient><linearGradient id="eqjJMEctx5011-fill" x1="-0.013023" y1="-1.563173" x2="1.018094" y2="1" spreadMethod="pad" gradientUnits="objectBoundingBox" gradientTransform="translate(0 0)"><stop id="eqjJMEctx5011-fill-0" offset="0%" stop-color="#8defe0"/><stop id="eqjJMEctx5011-fill-1" offset="100%" stop-color="#27aeec"/></linearGradient><linearGradient id="eqjJMEctx5013-fill" x1="-0.369988" y1="-1.567683" x2="-0.338016" y2="1.425006" spreadMethod="pad" gradientUnits="objectBoundingBox" gradientTransform="translate(0 0)"><stop id="eqjJMEctx5013-fill-0" offset="0%" stop-color="#074168"/><stop id="eqjJMEctx5013-fill-1" offset="100%" stop-color="#022645"/></linearGradient><linearGradient id="eqjJMEctx5014-fill" x1="0.281962" y1="-9.160115" x2="0.281962" y2="2.105097" spreadMethod="pad" gradientUnits="objectBoundingBox" gradientTransform="translate(0 0)"><stop id="eqjJMEctx5014-fill-0" offset="0%" stop-color="#20c2de"/><stop id="eqjJMEctx5014-fill-1" offset="100%" stop-color="#0b5383"/></linearGradient><linearGradient id="eqjJMEctx5015-fill" x1="-0.013023" y1="-1.563173" x2="1.018094" y2="1" spreadMethod="pad" gradientUnits="objectBoundingBox" gradientTransform="translate(0 0)"><stop id="eqjJMEctx5015-fill-0" offset="0%" stop-color="#8defe0"/><stop id="eqjJMEctx5015-fill-1" offset="100%" stop-color="#27aeec"/></linearGradient><linearGradient id="eqjJMEctx5017-fill" x1="0.219283" y1="0.055109" x2="0.918973" y2="0.812356" spreadMethod="pad" gradientUnits="objectBoundingBox" gradientTransform="translate(0 0)"><stop id="eqjJMEctx5017-fill-0" offset="0%" stop-color="#fbd388"/><stop id="eqjJMEctx5017-fill-1" offset="100%" stop-color="#ff774c"/></linearGradient><linearGradient id="eqjJMEctx5018-fill" x1="-0.051478" y1="-0.293705" x2="0.93238" y2="0.78404" spreadMethod="pad" gradientUnits="objectBoundingBox" gradientTransform="translate(0 0)"><stop id="eqjJMEctx5018-fill-0" offset="0%" stop-color="#ff9557"/><stop id="eqjJMEctx5018-fill-1" offset="100%" stop-color="#df4e44"/></linearGradient><linearGradient id="eqjJMEctx5019-fill" x1="0.147064" y1="0.14583" x2="0.852936" y2="0.85417" spreadMethod="pad" gradientUnits="objectBoundingBox" gradientTransform="translate(0 0)"><stop id="eqjJMEctx5019-fill-0" offset="0%" stop-color="#cf483f"/><stop id="eqjJMEctx5019-fill-1" offset="100%" stop-color="#a32b42"/></linearGradient></defs><g transform="translate(.000001 124.610733)"><path d="M10.791141,-0.277914h103.248859c25.234284.51347,42.080923,25.353769,60,42.30603h-116.69007C39.741668,29.054696,17.157792,8.35078,10.791141,-0.277914Z" transform="translate(287.960001 581.667181)" fill="url(#eqjJMEctx503-fill)" stroke-width="0"/><path d="M34.304744,-5.048111L202,-10.048117v11.110739c-11.21939,10.5-15.885447,15.5-33,15.5h-122.871038c-3.548854-5.663824-9.524851-16.41983-11.824218-21.610733Z" transform="translate(222.964966 524.437378)" fill="url(#eqjJMEctx504-fill)" stroke-width="0"/><path d="M24.189289,-5.110739l177.345744-.499994L202,24c-15-5.5-14.9375-5.5-33-6L34.304744,17.889267c-2.880246-5.541868-7.928312-17.045736-10.115455-23.000006Z" transform="translate(222.964966 501.5)" fill="url(#eqjJMEctx505-fill)" stroke-width="0"/><path d="M216.76152,-145.243867c1.27831,13.957242-4.960502,44.469884-9.798918,60.188229L51.382269,69.21397h-47.47709L216.76152,-145.243867Z" transform="translate(578.277927 554.675297)" fill="url(#eqjJMEctx506-fill)" stroke-width="0"/><path d="M13.056039,6.62574h151.000815c27.780609,0,43.918209,15.945867,56,30L360.274992,173.931776h47.47709L563.17347,19.856138C497.313187,240.709589,253.173736,274.35091,123.242872,173.931776h116.849015c4.403998,5.672049,15.951477,12.450856,28.5,14.287659h47.721375L191.837463,64.62574c-15.780609-18.389261-27.780609-18-27.780609-18h-138.810711c-4.267284-10.465053-10.586389-30.390368-12.190104-40Z" transform="translate(222.067058 449.763522)" fill="url(#eqjJMEctx507-fill)" stroke-width="0"/></g><g transform="translate(.000001 0)"><path d="M4.999987,-5L202,-10.048117v11.110739c-11.21939,10.5-15.885447,15.5-33,15.5h-163.140766C5.398896,11.028418,4.949177,0.249117,4.999987,-5Z" transform="translate(222.964967 524.437378)" fill="url(#eqjJMEctx509-fill)" stroke-width="0"/><path d="M5.859234,-5.110739l195.675799-3.88926L202,24c-15-5.5-14.9375-5.5-33-6L4.999987,17.937378c-.06148-6.12558.322146-17.655389.859247-23.048117Z" transform="translate(222.964966 501.500001)" fill="url(#eqjJMEctx5010-fill)" stroke-width="0"/><path d="M12.896603,6.62574h151.160251c27.780609,0,43.918209,15.945867,56,30L396.058905,209.362472l-28.44,30.16L191.837463,64.62574c-15.780609-18.389261-27.780609-18-27.780609-18h-157.140766c.671044-10.477292,3.591878-30.477292,5.980515-40Z" transform="translate(221.908115 449.763521)" fill="url(#eqjJMEctx5011-fill)" stroke-width="0"/></g><g transform="translate(4.000001-114.889251)"><path d="M24.731689,-4.937378L202,-10.099133v11.161755c-11.21939,10.5-15.885447,15.5-33,15.5h-152.58684c1.742126-5.796134,5.807569-16.564648,8.318529-21.5Z" transform="translate(223.068083 524.404852)" fill="url(#eqjJMEctx5013-fill)" stroke-width="0"/><path d="M36.182898,-5.110739l165.817104-4.352593L202,24c-15-5.5-14.9375-5.5-33-6h-144.165194c2.738061-6.284869,8.468197-17.958855,11.348092-23.110739Z" transform="translate(222.964966 501.5)" fill="url(#eqjJMEctx5014-fill)" stroke-width="0"/><path d="M421.86302,292.76212C369.933027,241.162113,191.837463,64.62574,191.837463,64.62574c-15.780609-18.389261-27.780609-18-27.780609-18l-126.817102.008812C41.85727,37.525303,54.86759,18.066178,63.591887,6.62574h100.464967c27.780609,0,43.918209,15.945867,56,30L420.762236,233.918455L557.228944,100.302817c2.743841,6.444307,8.94159,34.497646,11.012255,55.322914h-11.972004L450.204955,262.860543q-25.50738,26.901585-28.341935,29.901577Z" transform="translate(221.908113 449.679977)" fill="url(#eqjJMEctx5015-fill)" stroke-width="0"/></g><g><path d="M421.86302,292.76212C398.307101,269.355886,219.824371,90.408591,219.824371,90.408591c-8.478832-10.250622-23.47133-16.795791-45.5-16c0,0-57.218825-.524382-57.218825.032472c177.538519-125.353443,378.231021-9.825622,419.322057,99.794338l-86.222648,88.625142q-25.50738,26.901585-28.341935,29.901577Z" transform="translate(227.67563 214.591409)" fill="url(#eqjJMEctx5017-fill)" stroke-width="0"/><path d="M421.36302,293.615649C369.433027,242.015642,184.324372,57.76212,184.324372,57.76212q52.918208-1.554134,64.999999,12.5L420.762236,233.918455l94.595243-97.097046c7.048355,8.808741,17.512096,29.294439,20.570124,38.267521l-85.549627,88.625142q-26.180401,26.901585-29.014956,29.901577Z" transform="translate(228.17563 213.73788)" fill="url(#eqjJMEctx5018-fill)" stroke-width="0"/><path d="M-49,-5c0-27.614237,22.385763-50,50-50s50,22.385763,50,50-22.385763,50-50,50-50-22.385763-50-50Z" transform="translate(647.500001 387.5)" fill="url(#eqjJMEctx5019-fill)" stroke-width="0"/></g></svg>
